<svg width="32" height="32" viewBox="0 0 32 32" fill="none" xmlns="http://www.w3.org/2000/svg">
<path d="M16.9281 15.2167C18.0428 15.2167 18.9465 14.1057 18.9465 12.7353C18.9465 11.3649 18.0428 10.2539 16.9281 10.2539C15.8134 10.2539 14.9097 11.3649 14.9097 12.7353C14.9097 14.1057 15.8134 15.2167 16.9281 15.2167Z" fill="#8C6AF0"/>
<path d="M25.5649 15.2167C26.6796 15.2167 27.5832 14.1057 27.5832 12.7353C27.5832 11.3649 26.6796 10.2539 25.5649 10.2539C24.4502 10.2539 23.5465 11.3649 23.5465 12.7353C23.5465 14.1057 24.4502 15.2167 25.5649 15.2167Z" fill="#8C6AF0"/>
<path d="M29.1152 10.9343C29.1152 4.8962 23.7883 0 17.2174 0H14.6847C8.11242 0 2.78554 4.8962 2.78554 10.9343L2.04892 26.123H2V27.4929C2 29.8617 4.08966 31.7814 6.66713 31.7814C9.24461 31.7814 11.3343 29.8617 11.3343 27.4929C11.3343 29.8617 13.4239 31.7814 16.0014 31.7814C18.5789 31.7814 20.6685 29.8617 20.6685 27.4929C20.6685 29.8617 22.7582 31.7814 25.3357 31.7814C27.9131 31.7814 30.0028 29.8617 30.0028 27.4929V26.123L29.118 10.9357L29.1152 10.9343ZM14.9083 16.8335C13.1318 16.8335 11.6907 14.9535 11.6907 12.6329C11.6907 10.3123 13.1318 8.43234 14.9083 8.43234C16.6849 8.43234 18.126 10.3123 18.126 12.6329C18.126 14.9535 16.6849 16.8335 14.9083 16.8335ZM23.5465 16.8335C21.7728 16.8335 20.3359 14.9578 20.3359 12.6428C20.3359 10.3279 21.7728 8.45218 23.5465 8.45218C25.3203 8.45218 26.7572 10.3279 26.7572 12.6428C26.7572 14.9578 25.3203 16.8335 23.5465 16.8335Z" fill="#8C6AF0"/>
</svg>
