<?xml version="1.0" encoding="UTF-8"?>
<svg id="_레이어_2" data-name="레이어 2" xmlns="http://www.w3.org/2000/svg" viewBox="0 0 255.43 49.26">
  <defs>
    <style>
      .cls-1 {
        fill: #6738f6;
      }
    </style>
  </defs>
  <g id="_레이어_1-2" data-name="레이어 1">
    <g>
      <path class="cls-1" d="M38.61,16.75c0,2.15-.32,4.05-.96,5.71-.64,1.66-1.52,3.11-2.64,4.35-1.12,1.24-2.43,2.29-3.94,3.16-1.51.86-3.12,1.57-4.83,2.11-1.72.54-3.49.94-5.33,1.2-1.84.26-3.64.39-5.42.42v15.48H0c0-5.07.01-10.12.03-15.15.02-5.03.06-10.1.1-15.22.04-2.7.06-5.4.03-8.11-.02-2.7.03-5.43.17-8.17,2.83-.84,5.67-1.47,8.51-1.89,2.84-.42,5.76-.63,8.77-.63,1.71,0,3.41.14,5.12.42,1.71.28,3.34.71,4.9,1.31,1.56.6,3.01,1.35,4.35,2.24s2.5,1.97,3.47,3.21,1.74,2.65,2.31,4.24c.57,1.58.85,3.36.85,5.33ZM23.86,17.87c0-1.44-.44-2.56-1.31-3.37-.88-.81-2.01-1.21-3.41-1.21-.47,0-.95.04-1.44.12-.5.08-.97.17-1.41.28l-.4,9.7c.31.05.61.07.9.07h.9c.8,0,1.57-.13,2.31-.4s1.4-.65,1.98-1.15c.58-.5,1.04-1.09,1.38-1.76.34-.68.52-1.43.52-2.28Z"/>
      <path class="cls-1" d="M70.5,31.9l-5.06,17.27h-26.55L42.55.6h16l-3.67,33.03,15.62-1.72Z"/>
      <path class="cls-1" d="M113.54,49.17h-15.86l-1.78-8.7h-7.58l-1.93,8.7-16.82-2.38L82.94,2.06l18.47-.93,12.13,48.04ZM94.7,30.3l-2.53-11.56-2.46,11.56h4.98Z"/>
      <path class="cls-1" d="M150.56,2.27l-15.62,28.08.47,18.81h-17.08l.4-18.67-12.16-27.21,16.94-2.13,5.32,16.91,5.78-16.91,15.95,1.13Z"/>
      <path class="cls-1" d="M210.13,25.29c0,2.17-.25,4.26-.75,6.27-.5,2.01-1.22,3.9-2.16,5.67-.94,1.76-2.09,3.38-3.43,4.84-1.35,1.47-2.86,2.72-4.54,3.77-1.68,1.05-3.51,1.86-5.49,2.45-1.98.58-4.08.88-6.29.88s-4.19-.27-6.13-.82c-1.94-.55-3.76-1.32-5.45-2.31-1.69-.99-3.22-2.18-4.59-3.58-1.37-1.39-2.54-2.94-3.5-4.65-.97-1.7-1.72-3.53-2.25-5.49-.54-1.95-.8-3.99-.8-6.11s.25-4.11.75-6.1,1.22-3.87,2.16-5.63c.94-1.76,2.08-3.38,3.41-4.86,1.33-1.48,2.83-2.75,4.49-3.82,1.66-1.07,3.45-1.91,5.38-2.5,1.93-.6,3.97-.89,6.11-.89,3.46,0,6.61.54,9.46,1.61,2.85,1.07,5.28,2.6,7.29,4.59,2.01,1.99,3.58,4.4,4.68,7.22,1.11,2.82,1.66,5.98,1.66,9.46ZM194.26,26.22c0-1.02-.15-2.02-.45-2.98-.3-.97-.73-1.82-1.31-2.57s-1.28-1.36-2.13-1.82c-.85-.46-1.82-.7-2.91-.7s-2.12.2-3,.61c-.88.41-1.64.96-2.27,1.66-.63.7-1.11,1.53-1.45,2.47-.33.94-.5,1.94-.5,2.98s.14,2,.43,3,.72,1.91,1.29,2.72,1.28,1.47,2.13,1.97c.85.5,1.83.75,2.95.75s2.13-.22,3.02-.66c.89-.44,1.65-1.04,2.27-1.79s1.1-1.61,1.43-2.59c.33-.98.5-1.99.5-3.04Z"/>
      <path class="cls-1" d="M255.43.27l-.27,49h-16.28l-9.9-25.67-1.53,25.67-14.91-.09,1.22-48.11,16.61-.8,11.5,23.92-.56-23.1,14.12-.82Z"/>
    </g>
  </g>
</svg>